<mxfile host="app.diagrams.net" modified="2023-05-17T23:59:44.347Z" agent="Mozilla/5.0 (Windows NT 10.0; Win64; x64) AppleWebKit/537.36 (KHTML, like Gecko) Chrome/113.0.0.0 Safari/537.36" etag="db0zEHcEA2VznjIXf-Jz" version="21.3.2" type="github">
  <diagram id="C5RBs43oDa-KdzZeNtuy" name="Page-1">
    <mxGraphModel dx="1877" dy="1750" grid="1" gridSize="10" guides="1" tooltips="1" connect="1" arrows="1" fold="1" page="1" pageScale="1" pageWidth="827" pageHeight="1169" math="0" shadow="0">
      <root>
        <mxCell id="WIyWlLk6GJQsqaUBKTNV-0" />
        <mxCell id="WIyWlLk6GJQsqaUBKTNV-1" parent="WIyWlLk6GJQsqaUBKTNV-0" />
        <mxCell id="f-WO4qhuTFuI4Y3Qx2Yt-1" value="Horario" style="whiteSpace=wrap;html=1;align=center;" vertex="1" parent="WIyWlLk6GJQsqaUBKTNV-1">
          <mxGeometry x="140" y="440" width="100" height="40" as="geometry" />
        </mxCell>
        <mxCell id="f-WO4qhuTFuI4Y3Qx2Yt-2" value="Colectivo" style="whiteSpace=wrap;html=1;align=center;" vertex="1" parent="WIyWlLk6GJQsqaUBKTNV-1">
          <mxGeometry x="570" y="40" width="100" height="40" as="geometry" />
        </mxCell>
        <mxCell id="f-WO4qhuTFuI4Y3Qx2Yt-3" value="Chofer" style="whiteSpace=wrap;html=1;align=center;" vertex="1" parent="WIyWlLk6GJQsqaUBKTNV-1">
          <mxGeometry x="140" y="40" width="100" height="40" as="geometry" />
        </mxCell>
        <mxCell id="f-WO4qhuTFuI4Y3Qx2Yt-4" style="edgeStyle=orthogonalEdgeStyle;rounded=0;orthogonalLoop=1;jettySize=auto;html=1;exitX=1;exitY=0;exitDx=0;exitDy=0;entryX=1;entryY=0.25;entryDx=0;entryDy=0;" edge="1" parent="WIyWlLk6GJQsqaUBKTNV-1" source="f-WO4qhuTFuI4Y3Qx2Yt-1" target="f-WO4qhuTFuI4Y3Qx2Yt-1">
          <mxGeometry relative="1" as="geometry" />
        </mxCell>
        <mxCell id="f-WO4qhuTFuI4Y3Qx2Yt-5" value="Conduce" style="shape=rhombus;perimeter=rhombusPerimeter;whiteSpace=wrap;html=1;align=center;" vertex="1" parent="WIyWlLk6GJQsqaUBKTNV-1">
          <mxGeometry x="354" y="30" width="120" height="60" as="geometry" />
        </mxCell>
        <mxCell id="f-WO4qhuTFuI4Y3Qx2Yt-6" value="Tiene" style="shape=rhombus;perimeter=rhombusPerimeter;whiteSpace=wrap;html=1;align=center;" vertex="1" parent="WIyWlLk6GJQsqaUBKTNV-1">
          <mxGeometry x="130" y="230" width="120" height="60" as="geometry" />
        </mxCell>
        <mxCell id="f-WO4qhuTFuI4Y3Qx2Yt-7" value="" style="endArrow=none;html=1;rounded=0;exitX=0.5;exitY=1;exitDx=0;exitDy=0;entryX=0.5;entryY=0;entryDx=0;entryDy=0;" edge="1" parent="WIyWlLk6GJQsqaUBKTNV-1" source="f-WO4qhuTFuI4Y3Qx2Yt-6" target="f-WO4qhuTFuI4Y3Qx2Yt-1">
          <mxGeometry relative="1" as="geometry">
            <mxPoint x="330" y="300" as="sourcePoint" />
            <mxPoint x="490" y="300" as="targetPoint" />
          </mxGeometry>
        </mxCell>
        <mxCell id="f-WO4qhuTFuI4Y3Qx2Yt-8" value="1" style="resizable=0;html=1;whiteSpace=wrap;align=right;verticalAlign=bottom;" connectable="0" vertex="1" parent="f-WO4qhuTFuI4Y3Qx2Yt-7">
          <mxGeometry x="1" relative="1" as="geometry" />
        </mxCell>
        <mxCell id="f-WO4qhuTFuI4Y3Qx2Yt-11" value="" style="endArrow=none;html=1;rounded=0;exitX=0.5;exitY=0;exitDx=0;exitDy=0;entryX=0.5;entryY=1;entryDx=0;entryDy=0;" edge="1" parent="WIyWlLk6GJQsqaUBKTNV-1" source="f-WO4qhuTFuI4Y3Qx2Yt-6" target="f-WO4qhuTFuI4Y3Qx2Yt-3">
          <mxGeometry relative="1" as="geometry">
            <mxPoint x="330" y="300" as="sourcePoint" />
            <mxPoint x="490" y="300" as="targetPoint" />
          </mxGeometry>
        </mxCell>
        <mxCell id="f-WO4qhuTFuI4Y3Qx2Yt-12" value="1" style="resizable=0;html=1;whiteSpace=wrap;align=right;verticalAlign=bottom;" connectable="0" vertex="1" parent="f-WO4qhuTFuI4Y3Qx2Yt-11">
          <mxGeometry x="1" relative="1" as="geometry" />
        </mxCell>
        <mxCell id="f-WO4qhuTFuI4Y3Qx2Yt-16" value="" style="endArrow=none;html=1;rounded=0;entryX=0;entryY=0.5;entryDx=0;entryDy=0;" edge="1" parent="WIyWlLk6GJQsqaUBKTNV-1" target="f-WO4qhuTFuI4Y3Qx2Yt-2">
          <mxGeometry relative="1" as="geometry">
            <mxPoint x="470" y="60" as="sourcePoint" />
            <mxPoint x="490" y="230" as="targetPoint" />
          </mxGeometry>
        </mxCell>
        <mxCell id="f-WO4qhuTFuI4Y3Qx2Yt-17" value="1" style="resizable=0;html=1;whiteSpace=wrap;align=right;verticalAlign=bottom;" connectable="0" vertex="1" parent="f-WO4qhuTFuI4Y3Qx2Yt-16">
          <mxGeometry x="1" relative="1" as="geometry" />
        </mxCell>
        <mxCell id="f-WO4qhuTFuI4Y3Qx2Yt-20" value="Hay" style="shape=rhombus;perimeter=rhombusPerimeter;whiteSpace=wrap;html=1;align=center;" vertex="1" parent="WIyWlLk6GJQsqaUBKTNV-1">
          <mxGeometry x="354" y="430" width="120" height="60" as="geometry" />
        </mxCell>
        <mxCell id="f-WO4qhuTFuI4Y3Qx2Yt-25" value="" style="endArrow=none;html=1;rounded=0;entryX=1;entryY=0.5;entryDx=0;entryDy=0;" edge="1" parent="WIyWlLk6GJQsqaUBKTNV-1" target="f-WO4qhuTFuI4Y3Qx2Yt-1">
          <mxGeometry relative="1" as="geometry">
            <mxPoint x="360" y="460" as="sourcePoint" />
            <mxPoint x="400" y="530" as="targetPoint" />
          </mxGeometry>
        </mxCell>
        <mxCell id="f-WO4qhuTFuI4Y3Qx2Yt-26" value="1" style="resizable=0;html=1;whiteSpace=wrap;align=right;verticalAlign=bottom;" connectable="0" vertex="1" parent="f-WO4qhuTFuI4Y3Qx2Yt-25">
          <mxGeometry x="1" relative="1" as="geometry" />
        </mxCell>
        <mxCell id="f-WO4qhuTFuI4Y3Qx2Yt-29" value="" style="endArrow=none;html=1;rounded=0;entryX=0;entryY=0.5;entryDx=0;entryDy=0;" edge="1" parent="WIyWlLk6GJQsqaUBKTNV-1" source="f-WO4qhuTFuI4Y3Qx2Yt-20" target="f-WO4qhuTFuI4Y3Qx2Yt-107">
          <mxGeometry relative="1" as="geometry">
            <mxPoint x="474" y="460" as="sourcePoint" />
            <mxPoint x="570" y="460" as="targetPoint" />
          </mxGeometry>
        </mxCell>
        <mxCell id="f-WO4qhuTFuI4Y3Qx2Yt-30" value="N" style="resizable=0;html=1;whiteSpace=wrap;align=right;verticalAlign=bottom;" connectable="0" vertex="1" parent="f-WO4qhuTFuI4Y3Qx2Yt-29">
          <mxGeometry x="1" relative="1" as="geometry" />
        </mxCell>
        <mxCell id="f-WO4qhuTFuI4Y3Qx2Yt-31" value="Tienen" style="shape=rhombus;perimeter=rhombusPerimeter;whiteSpace=wrap;html=1;align=center;" vertex="1" parent="WIyWlLk6GJQsqaUBKTNV-1">
          <mxGeometry x="560" y="230" width="120" height="60" as="geometry" />
        </mxCell>
        <mxCell id="f-WO4qhuTFuI4Y3Qx2Yt-34" value="" style="endArrow=none;html=1;rounded=0;entryX=0.5;entryY=0;entryDx=0;entryDy=0;exitX=0.5;exitY=1;exitDx=0;exitDy=0;" edge="1" parent="WIyWlLk6GJQsqaUBKTNV-1" source="f-WO4qhuTFuI4Y3Qx2Yt-31" target="f-WO4qhuTFuI4Y3Qx2Yt-107">
          <mxGeometry relative="1" as="geometry">
            <mxPoint x="330" y="270" as="sourcePoint" />
            <mxPoint x="620" y="440" as="targetPoint" />
          </mxGeometry>
        </mxCell>
        <mxCell id="f-WO4qhuTFuI4Y3Qx2Yt-35" value="N" style="resizable=0;html=1;whiteSpace=wrap;align=right;verticalAlign=bottom;" connectable="0" vertex="1" parent="f-WO4qhuTFuI4Y3Qx2Yt-34">
          <mxGeometry x="1" relative="1" as="geometry" />
        </mxCell>
        <mxCell id="f-WO4qhuTFuI4Y3Qx2Yt-36" value="" style="endArrow=none;html=1;rounded=0;entryX=0.5;entryY=1;entryDx=0;entryDy=0;exitX=0.5;exitY=0;exitDx=0;exitDy=0;" edge="1" parent="WIyWlLk6GJQsqaUBKTNV-1" source="f-WO4qhuTFuI4Y3Qx2Yt-31" target="f-WO4qhuTFuI4Y3Qx2Yt-2">
          <mxGeometry relative="1" as="geometry">
            <mxPoint x="620" y="220" as="sourcePoint" />
            <mxPoint x="630" y="150" as="targetPoint" />
          </mxGeometry>
        </mxCell>
        <mxCell id="f-WO4qhuTFuI4Y3Qx2Yt-37" value="N" style="resizable=0;html=1;whiteSpace=wrap;align=right;verticalAlign=bottom;" connectable="0" vertex="1" parent="f-WO4qhuTFuI4Y3Qx2Yt-36">
          <mxGeometry x="1" relative="1" as="geometry" />
        </mxCell>
        <mxCell id="f-WO4qhuTFuI4Y3Qx2Yt-39" value="&lt;span style=&quot;border-bottom: 1px dotted&quot;&gt;DNI&lt;/span&gt;" style="ellipse;whiteSpace=wrap;html=1;align=center;" vertex="1" parent="WIyWlLk6GJQsqaUBKTNV-1">
          <mxGeometry x="240" y="-100" width="100" height="50" as="geometry" />
        </mxCell>
        <mxCell id="f-WO4qhuTFuI4Y3Qx2Yt-40" value="LicConducir" style="ellipse;whiteSpace=wrap;html=1;align=center;dashed=1;" vertex="1" parent="WIyWlLk6GJQsqaUBKTNV-1">
          <mxGeometry x="-50" y="-120" width="100" height="50" as="geometry" />
        </mxCell>
        <mxCell id="f-WO4qhuTFuI4Y3Qx2Yt-41" value="" style="edgeStyle=entityRelationEdgeStyle;fontSize=12;html=1;endArrow=ERmandOne;rounded=0;entryX=1;entryY=0.5;entryDx=0;entryDy=0;" edge="1" parent="WIyWlLk6GJQsqaUBKTNV-1" target="f-WO4qhuTFuI4Y3Qx2Yt-40">
          <mxGeometry width="100" height="100" relative="1" as="geometry">
            <mxPoint x="160" y="40" as="sourcePoint" />
            <mxPoint x="220" y="-60" as="targetPoint" />
          </mxGeometry>
        </mxCell>
        <mxCell id="f-WO4qhuTFuI4Y3Qx2Yt-43" value="Legajo" style="ellipse;whiteSpace=wrap;html=1;align=center;fontStyle=4;" vertex="1" parent="WIyWlLk6GJQsqaUBKTNV-1">
          <mxGeometry x="-80" y="-40" width="100" height="50" as="geometry" />
        </mxCell>
        <mxCell id="f-WO4qhuTFuI4Y3Qx2Yt-45" value="Telefonos" style="ellipse;shape=doubleEllipse;margin=3;whiteSpace=wrap;html=1;align=center;" vertex="1" parent="WIyWlLk6GJQsqaUBKTNV-1">
          <mxGeometry x="-100" y="40" width="100" height="40" as="geometry" />
        </mxCell>
        <mxCell id="f-WO4qhuTFuI4Y3Qx2Yt-46" value="" style="edgeStyle=entityRelationEdgeStyle;fontSize=12;html=1;endArrow=ERoneToMany;rounded=0;exitX=0;exitY=0.5;exitDx=0;exitDy=0;" edge="1" parent="WIyWlLk6GJQsqaUBKTNV-1" source="f-WO4qhuTFuI4Y3Qx2Yt-3" target="f-WO4qhuTFuI4Y3Qx2Yt-45">
          <mxGeometry width="100" height="100" relative="1" as="geometry">
            <mxPoint x="90" y="120" as="sourcePoint" />
            <mxPoint x="40" y="80" as="targetPoint" />
          </mxGeometry>
        </mxCell>
        <mxCell id="f-WO4qhuTFuI4Y3Qx2Yt-47" value="CondNombre" style="ellipse;whiteSpace=wrap;html=1;align=center;" vertex="1" parent="WIyWlLk6GJQsqaUBKTNV-1">
          <mxGeometry x="-80" y="110" width="100" height="40" as="geometry" />
        </mxCell>
        <mxCell id="f-WO4qhuTFuI4Y3Qx2Yt-48" value="CondApellido" style="ellipse;whiteSpace=wrap;html=1;align=center;" vertex="1" parent="WIyWlLk6GJQsqaUBKTNV-1">
          <mxGeometry x="-80" y="170" width="100" height="40" as="geometry" />
        </mxCell>
        <mxCell id="f-WO4qhuTFuI4Y3Qx2Yt-49" value="DomChofer" style="ellipse;whiteSpace=wrap;html=1;align=center;" vertex="1" parent="WIyWlLk6GJQsqaUBKTNV-1">
          <mxGeometry x="40" y="-170" width="100" height="40" as="geometry" />
        </mxCell>
        <mxCell id="f-WO4qhuTFuI4Y3Qx2Yt-54" value="" style="edgeStyle=entityRelationEdgeStyle;fontSize=12;html=1;endArrow=ERmandOne;rounded=0;entryX=1;entryY=0.5;entryDx=0;entryDy=0;exitX=0;exitY=0.75;exitDx=0;exitDy=0;" edge="1" parent="WIyWlLk6GJQsqaUBKTNV-1" source="f-WO4qhuTFuI4Y3Qx2Yt-3" target="f-WO4qhuTFuI4Y3Qx2Yt-47">
          <mxGeometry width="100" height="100" relative="1" as="geometry">
            <mxPoint x="60" y="240" as="sourcePoint" />
            <mxPoint x="160" y="140" as="targetPoint" />
          </mxGeometry>
        </mxCell>
        <mxCell id="f-WO4qhuTFuI4Y3Qx2Yt-55" value="" style="edgeStyle=entityRelationEdgeStyle;fontSize=12;html=1;endArrow=ERmandOne;rounded=0;entryX=1;entryY=0.5;entryDx=0;entryDy=0;exitX=0;exitY=0.75;exitDx=0;exitDy=0;" edge="1" parent="WIyWlLk6GJQsqaUBKTNV-1" source="f-WO4qhuTFuI4Y3Qx2Yt-3" target="f-WO4qhuTFuI4Y3Qx2Yt-48">
          <mxGeometry width="100" height="100" relative="1" as="geometry">
            <mxPoint x="150" y="80" as="sourcePoint" />
            <mxPoint x="30" y="140" as="targetPoint" />
          </mxGeometry>
        </mxCell>
        <mxCell id="f-WO4qhuTFuI4Y3Qx2Yt-56" value="" style="edgeStyle=entityRelationEdgeStyle;fontSize=12;html=1;endArrow=ERmandOne;rounded=0;entryX=1;entryY=0.5;entryDx=0;entryDy=0;" edge="1" parent="WIyWlLk6GJQsqaUBKTNV-1" target="f-WO4qhuTFuI4Y3Qx2Yt-49">
          <mxGeometry width="100" height="100" relative="1" as="geometry">
            <mxPoint x="160" y="40" as="sourcePoint" />
            <mxPoint x="40" y="150" as="targetPoint" />
          </mxGeometry>
        </mxCell>
        <mxCell id="f-WO4qhuTFuI4Y3Qx2Yt-57" value="DCCalle" style="ellipse;whiteSpace=wrap;html=1;align=center;" vertex="1" parent="WIyWlLk6GJQsqaUBKTNV-1">
          <mxGeometry x="-100" y="-290" width="100" height="40" as="geometry" />
        </mxCell>
        <mxCell id="f-WO4qhuTFuI4Y3Qx2Yt-58" value="DCNro" style="ellipse;whiteSpace=wrap;html=1;align=center;" vertex="1" parent="WIyWlLk6GJQsqaUBKTNV-1">
          <mxGeometry x="30" y="-260" width="100" height="40" as="geometry" />
        </mxCell>
        <mxCell id="f-WO4qhuTFuI4Y3Qx2Yt-59" value="DCPisoDepto" style="ellipse;whiteSpace=wrap;html=1;align=center;" vertex="1" parent="WIyWlLk6GJQsqaUBKTNV-1">
          <mxGeometry x="170" y="-290" width="100" height="40" as="geometry" />
        </mxCell>
        <mxCell id="f-WO4qhuTFuI4Y3Qx2Yt-60" value="DC_CP" style="ellipse;whiteSpace=wrap;html=1;align=center;" vertex="1" parent="WIyWlLk6GJQsqaUBKTNV-1">
          <mxGeometry x="314" y="-290" width="100" height="40" as="geometry" />
        </mxCell>
        <mxCell id="f-WO4qhuTFuI4Y3Qx2Yt-62" value="" style="edgeStyle=entityRelationEdgeStyle;fontSize=12;html=1;endArrow=ERmandOne;rounded=0;entryX=0.5;entryY=1;entryDx=0;entryDy=0;" edge="1" parent="WIyWlLk6GJQsqaUBKTNV-1" source="f-WO4qhuTFuI4Y3Qx2Yt-49" target="f-WO4qhuTFuI4Y3Qx2Yt-58">
          <mxGeometry width="100" height="100" relative="1" as="geometry">
            <mxPoint x="10" y="-150" as="sourcePoint" />
            <mxPoint x="130" y="-300" as="targetPoint" />
          </mxGeometry>
        </mxCell>
        <mxCell id="f-WO4qhuTFuI4Y3Qx2Yt-63" value="" style="edgeStyle=entityRelationEdgeStyle;fontSize=12;html=1;endArrow=ERmandOne;rounded=0;entryX=0.5;entryY=1;entryDx=0;entryDy=0;" edge="1" parent="WIyWlLk6GJQsqaUBKTNV-1" source="f-WO4qhuTFuI4Y3Qx2Yt-49" target="f-WO4qhuTFuI4Y3Qx2Yt-59">
          <mxGeometry width="100" height="100" relative="1" as="geometry">
            <mxPoint x="200" y="-130" as="sourcePoint" />
            <mxPoint x="300" y="-230" as="targetPoint" />
          </mxGeometry>
        </mxCell>
        <mxCell id="f-WO4qhuTFuI4Y3Qx2Yt-64" value="" style="edgeStyle=entityRelationEdgeStyle;fontSize=12;html=1;endArrow=ERmandOne;rounded=0;exitX=1;exitY=0.5;exitDx=0;exitDy=0;entryX=0;entryY=0.5;entryDx=0;entryDy=0;" edge="1" parent="WIyWlLk6GJQsqaUBKTNV-1" source="f-WO4qhuTFuI4Y3Qx2Yt-49" target="f-WO4qhuTFuI4Y3Qx2Yt-60">
          <mxGeometry width="100" height="100" relative="1" as="geometry">
            <mxPoint x="250" y="-160" as="sourcePoint" />
            <mxPoint x="350" y="-260" as="targetPoint" />
          </mxGeometry>
        </mxCell>
        <mxCell id="f-WO4qhuTFuI4Y3Qx2Yt-65" value="" style="edgeStyle=entityRelationEdgeStyle;fontSize=12;html=1;endArrow=ERmandOne;rounded=0;entryX=0.5;entryY=1;entryDx=0;entryDy=0;exitX=0;exitY=0.5;exitDx=0;exitDy=0;" edge="1" parent="WIyWlLk6GJQsqaUBKTNV-1" source="f-WO4qhuTFuI4Y3Qx2Yt-49" target="f-WO4qhuTFuI4Y3Qx2Yt-57">
          <mxGeometry width="100" height="100" relative="1" as="geometry">
            <mxPoint x="-90" y="-90" as="sourcePoint" />
            <mxPoint x="10" y="-190" as="targetPoint" />
          </mxGeometry>
        </mxCell>
        <mxCell id="f-WO4qhuTFuI4Y3Qx2Yt-66" value="EdadChofer" style="ellipse;whiteSpace=wrap;html=1;align=center;dashed=1;" vertex="1" parent="WIyWlLk6GJQsqaUBKTNV-1">
          <mxGeometry x="290" y="-180" width="100" height="40" as="geometry" />
        </mxCell>
        <mxCell id="f-WO4qhuTFuI4Y3Qx2Yt-67" value="" style="edgeStyle=entityRelationEdgeStyle;fontSize=12;html=1;endArrow=ERmandOne;rounded=0;entryX=0;entryY=0.5;entryDx=0;entryDy=0;" edge="1" parent="WIyWlLk6GJQsqaUBKTNV-1" target="f-WO4qhuTFuI4Y3Qx2Yt-66">
          <mxGeometry width="100" height="100" relative="1" as="geometry">
            <mxPoint x="170" y="40" as="sourcePoint" />
            <mxPoint x="290" y="-150" as="targetPoint" />
          </mxGeometry>
        </mxCell>
        <mxCell id="f-WO4qhuTFuI4Y3Qx2Yt-68" value="Antiguedad" style="ellipse;whiteSpace=wrap;html=1;align=center;dashed=1;" vertex="1" parent="WIyWlLk6GJQsqaUBKTNV-1">
          <mxGeometry x="390" y="-115" width="100" height="40" as="geometry" />
        </mxCell>
        <mxCell id="f-WO4qhuTFuI4Y3Qx2Yt-69" value="" style="edgeStyle=entityRelationEdgeStyle;fontSize=12;html=1;endArrow=ERmandOne;rounded=0;exitX=1;exitY=0.25;exitDx=0;exitDy=0;entryX=0;entryY=0.5;entryDx=0;entryDy=0;" edge="1" parent="WIyWlLk6GJQsqaUBKTNV-1" source="f-WO4qhuTFuI4Y3Qx2Yt-3" target="f-WO4qhuTFuI4Y3Qx2Yt-68">
          <mxGeometry width="100" height="100" relative="1" as="geometry">
            <mxPoint x="290" y="10" as="sourcePoint" />
            <mxPoint x="390" y="-90" as="targetPoint" />
          </mxGeometry>
        </mxCell>
        <mxCell id="f-WO4qhuTFuI4Y3Qx2Yt-70" value="" style="edgeStyle=entityRelationEdgeStyle;fontSize=12;html=1;endArrow=ERmandOne;rounded=0;" edge="1" parent="WIyWlLk6GJQsqaUBKTNV-1">
          <mxGeometry width="100" height="100" relative="1" as="geometry">
            <mxPoint x="240" y="50" as="sourcePoint" />
            <mxPoint x="450" y="-190" as="targetPoint" />
          </mxGeometry>
        </mxCell>
        <mxCell id="f-WO4qhuTFuI4Y3Qx2Yt-71" value="FI_Chofer" style="ellipse;whiteSpace=wrap;html=1;align=center;" vertex="1" parent="WIyWlLk6GJQsqaUBKTNV-1">
          <mxGeometry x="450" y="-210" width="100" height="40" as="geometry" />
        </mxCell>
        <mxCell id="f-WO4qhuTFuI4Y3Qx2Yt-74" value="NroInterno" style="ellipse;whiteSpace=wrap;html=1;align=center;fontStyle=4;" vertex="1" parent="WIyWlLk6GJQsqaUBKTNV-1">
          <mxGeometry x="630" y="-270" width="100" height="40" as="geometry" />
        </mxCell>
        <mxCell id="f-WO4qhuTFuI4Y3Qx2Yt-76" value="&lt;span style=&quot;border-bottom: 1px dotted&quot;&gt;Matricula&lt;/span&gt;" style="ellipse;whiteSpace=wrap;html=1;align=center;" vertex="1" parent="WIyWlLk6GJQsqaUBKTNV-1">
          <mxGeometry x="680" y="-200" width="100" height="40" as="geometry" />
        </mxCell>
        <mxCell id="f-WO4qhuTFuI4Y3Qx2Yt-77" value="" style="edgeStyle=entityRelationEdgeStyle;fontSize=12;html=1;endArrow=ERmandOne;rounded=0;" edge="1" parent="WIyWlLk6GJQsqaUBKTNV-1">
          <mxGeometry width="100" height="100" relative="1" as="geometry">
            <mxPoint x="600" y="40" as="sourcePoint" />
            <mxPoint x="680" y="-180" as="targetPoint" />
          </mxGeometry>
        </mxCell>
        <mxCell id="f-WO4qhuTFuI4Y3Qx2Yt-78" value="" style="edgeStyle=entityRelationEdgeStyle;fontSize=12;html=1;endArrow=ERmandOne;startArrow=ERmandOne;rounded=0;" edge="1" parent="WIyWlLk6GJQsqaUBKTNV-1">
          <mxGeometry width="100" height="100" relative="1" as="geometry">
            <mxPoint x="170" y="40" as="sourcePoint" />
            <mxPoint x="240" y="-70" as="targetPoint" />
          </mxGeometry>
        </mxCell>
        <mxCell id="f-WO4qhuTFuI4Y3Qx2Yt-79" value="" style="edgeStyle=entityRelationEdgeStyle;fontSize=12;html=1;endArrow=ERmandOne;startArrow=ERmandOne;rounded=0;entryX=1;entryY=0.5;entryDx=0;entryDy=0;exitX=0;exitY=0.25;exitDx=0;exitDy=0;" edge="1" parent="WIyWlLk6GJQsqaUBKTNV-1" source="f-WO4qhuTFuI4Y3Qx2Yt-3" target="f-WO4qhuTFuI4Y3Qx2Yt-43">
          <mxGeometry width="100" height="100" relative="1" as="geometry">
            <mxPoint x="40" y="80" as="sourcePoint" />
            <mxPoint x="140" y="-20" as="targetPoint" />
          </mxGeometry>
        </mxCell>
        <mxCell id="f-WO4qhuTFuI4Y3Qx2Yt-81" value="" style="endArrow=none;html=1;rounded=0;entryX=1;entryY=0.5;entryDx=0;entryDy=0;exitX=0;exitY=0.5;exitDx=0;exitDy=0;" edge="1" parent="WIyWlLk6GJQsqaUBKTNV-1" source="f-WO4qhuTFuI4Y3Qx2Yt-5" target="f-WO4qhuTFuI4Y3Qx2Yt-3">
          <mxGeometry relative="1" as="geometry">
            <mxPoint x="350" y="60" as="sourcePoint" />
            <mxPoint x="410" y="100" as="targetPoint" />
          </mxGeometry>
        </mxCell>
        <mxCell id="f-WO4qhuTFuI4Y3Qx2Yt-82" value="1" style="resizable=0;html=1;whiteSpace=wrap;align=right;verticalAlign=bottom;" connectable="0" vertex="1" parent="f-WO4qhuTFuI4Y3Qx2Yt-81">
          <mxGeometry x="1" relative="1" as="geometry" />
        </mxCell>
        <mxCell id="f-WO4qhuTFuI4Y3Qx2Yt-83" value="" style="edgeStyle=entityRelationEdgeStyle;fontSize=12;html=1;endArrow=ERmandOne;startArrow=ERmandOne;rounded=0;exitX=0;exitY=0;exitDx=0;exitDy=0;" edge="1" parent="WIyWlLk6GJQsqaUBKTNV-1" source="f-WO4qhuTFuI4Y3Qx2Yt-2">
          <mxGeometry width="100" height="100" relative="1" as="geometry">
            <mxPoint x="530" y="-150" as="sourcePoint" />
            <mxPoint x="630" y="-250" as="targetPoint" />
          </mxGeometry>
        </mxCell>
        <mxCell id="f-WO4qhuTFuI4Y3Qx2Yt-84" value="Capacidad" style="ellipse;whiteSpace=wrap;html=1;align=center;" vertex="1" parent="WIyWlLk6GJQsqaUBKTNV-1">
          <mxGeometry x="770" y="-150" width="100" height="40" as="geometry" />
        </mxCell>
        <mxCell id="f-WO4qhuTFuI4Y3Qx2Yt-85" value="MarcaCarroceria" style="ellipse;whiteSpace=wrap;html=1;align=center;" vertex="1" parent="WIyWlLk6GJQsqaUBKTNV-1">
          <mxGeometry x="800" y="-80" width="100" height="40" as="geometry" />
        </mxCell>
        <mxCell id="f-WO4qhuTFuI4Y3Qx2Yt-86" value="ModeCarroceria" style="ellipse;whiteSpace=wrap;html=1;align=center;" vertex="1" parent="WIyWlLk6GJQsqaUBKTNV-1">
          <mxGeometry x="827" width="100" height="40" as="geometry" />
        </mxCell>
        <mxCell id="f-WO4qhuTFuI4Y3Qx2Yt-87" value="MarcaMotor" style="ellipse;whiteSpace=wrap;html=1;align=center;" vertex="1" parent="WIyWlLk6GJQsqaUBKTNV-1">
          <mxGeometry x="840" y="80" width="100" height="40" as="geometry" />
        </mxCell>
        <mxCell id="f-WO4qhuTFuI4Y3Qx2Yt-88" value="ModeloMotor" style="ellipse;whiteSpace=wrap;html=1;align=center;" vertex="1" parent="WIyWlLk6GJQsqaUBKTNV-1">
          <mxGeometry x="840" y="140" width="100" height="40" as="geometry" />
        </mxCell>
        <mxCell id="f-WO4qhuTFuI4Y3Qx2Yt-89" value="NumMotor" style="ellipse;whiteSpace=wrap;html=1;align=center;" vertex="1" parent="WIyWlLk6GJQsqaUBKTNV-1">
          <mxGeometry x="840" y="210" width="100" height="40" as="geometry" />
        </mxCell>
        <mxCell id="f-WO4qhuTFuI4Y3Qx2Yt-90" value="NumChasis" style="ellipse;whiteSpace=wrap;html=1;align=center;" vertex="1" parent="WIyWlLk6GJQsqaUBKTNV-1">
          <mxGeometry x="700" y="220" width="100" height="40" as="geometry" />
        </mxCell>
        <mxCell id="f-WO4qhuTFuI4Y3Qx2Yt-91" value="" style="edgeStyle=entityRelationEdgeStyle;fontSize=12;html=1;endArrow=ERmandOne;rounded=0;exitX=0.75;exitY=0;exitDx=0;exitDy=0;" edge="1" parent="WIyWlLk6GJQsqaUBKTNV-1" source="f-WO4qhuTFuI4Y3Qx2Yt-2">
          <mxGeometry width="100" height="100" relative="1" as="geometry">
            <mxPoint x="670" y="-30" as="sourcePoint" />
            <mxPoint x="770" y="-130" as="targetPoint" />
          </mxGeometry>
        </mxCell>
        <mxCell id="f-WO4qhuTFuI4Y3Qx2Yt-92" value="" style="edgeStyle=entityRelationEdgeStyle;fontSize=12;html=1;endArrow=ERmandOne;rounded=0;" edge="1" parent="WIyWlLk6GJQsqaUBKTNV-1">
          <mxGeometry width="100" height="100" relative="1" as="geometry">
            <mxPoint x="660" y="40" as="sourcePoint" />
            <mxPoint x="800" y="-60" as="targetPoint" />
          </mxGeometry>
        </mxCell>
        <mxCell id="f-WO4qhuTFuI4Y3Qx2Yt-93" value="" style="edgeStyle=entityRelationEdgeStyle;fontSize=12;html=1;endArrow=ERmandOne;startArrow=ERmandOne;rounded=0;exitX=1;exitY=0.5;exitDx=0;exitDy=0;" edge="1" parent="WIyWlLk6GJQsqaUBKTNV-1" source="f-WO4qhuTFuI4Y3Qx2Yt-2">
          <mxGeometry width="100" height="100" relative="1" as="geometry">
            <mxPoint x="730" y="120" as="sourcePoint" />
            <mxPoint x="830" y="20" as="targetPoint" />
          </mxGeometry>
        </mxCell>
        <mxCell id="f-WO4qhuTFuI4Y3Qx2Yt-94" value="" style="edgeStyle=entityRelationEdgeStyle;fontSize=12;html=1;endArrow=ERmandOne;rounded=0;exitX=1;exitY=0.75;exitDx=0;exitDy=0;" edge="1" parent="WIyWlLk6GJQsqaUBKTNV-1" source="f-WO4qhuTFuI4Y3Qx2Yt-2">
          <mxGeometry width="100" height="100" relative="1" as="geometry">
            <mxPoint x="740" y="200" as="sourcePoint" />
            <mxPoint x="840" y="100" as="targetPoint" />
          </mxGeometry>
        </mxCell>
        <mxCell id="f-WO4qhuTFuI4Y3Qx2Yt-95" value="" style="edgeStyle=entityRelationEdgeStyle;fontSize=12;html=1;endArrow=ERmandOne;rounded=0;exitX=1;exitY=1;exitDx=0;exitDy=0;" edge="1" parent="WIyWlLk6GJQsqaUBKTNV-1" source="f-WO4qhuTFuI4Y3Qx2Yt-2">
          <mxGeometry width="100" height="100" relative="1" as="geometry">
            <mxPoint x="740" y="260" as="sourcePoint" />
            <mxPoint x="840" y="160" as="targetPoint" />
          </mxGeometry>
        </mxCell>
        <mxCell id="f-WO4qhuTFuI4Y3Qx2Yt-96" value="" style="edgeStyle=entityRelationEdgeStyle;fontSize=12;html=1;endArrow=ERmandOne;startArrow=ERmandOne;rounded=0;" edge="1" parent="WIyWlLk6GJQsqaUBKTNV-1">
          <mxGeometry width="100" height="100" relative="1" as="geometry">
            <mxPoint x="650" y="80" as="sourcePoint" />
            <mxPoint x="840" y="230" as="targetPoint" />
          </mxGeometry>
        </mxCell>
        <mxCell id="f-WO4qhuTFuI4Y3Qx2Yt-97" value="" style="edgeStyle=entityRelationEdgeStyle;fontSize=12;html=1;endArrow=ERmandOne;rounded=0;entryX=0;entryY=0.5;entryDx=0;entryDy=0;exitX=0.5;exitY=1;exitDx=0;exitDy=0;" edge="1" parent="WIyWlLk6GJQsqaUBKTNV-1" source="f-WO4qhuTFuI4Y3Qx2Yt-2" target="f-WO4qhuTFuI4Y3Qx2Yt-90">
          <mxGeometry width="100" height="100" relative="1" as="geometry">
            <mxPoint x="360" y="80" as="sourcePoint" />
            <mxPoint x="460" y="-20" as="targetPoint" />
          </mxGeometry>
        </mxCell>
        <mxCell id="f-WO4qhuTFuI4Y3Qx2Yt-99" value="Salida" style="ellipse;whiteSpace=wrap;html=1;align=center;" vertex="1" parent="WIyWlLk6GJQsqaUBKTNV-1">
          <mxGeometry x="-100" y="340" width="100" height="40" as="geometry" />
        </mxCell>
        <mxCell id="f-WO4qhuTFuI4Y3Qx2Yt-100" value="Entrada" style="ellipse;whiteSpace=wrap;html=1;align=center;" vertex="1" parent="WIyWlLk6GJQsqaUBKTNV-1">
          <mxGeometry x="-100" y="420" width="100" height="40" as="geometry" />
        </mxCell>
        <mxCell id="f-WO4qhuTFuI4Y3Qx2Yt-101" value="Turno" style="ellipse;whiteSpace=wrap;html=1;align=center;" vertex="1" parent="WIyWlLk6GJQsqaUBKTNV-1">
          <mxGeometry x="-90" y="520" width="100" height="40" as="geometry" />
        </mxCell>
        <mxCell id="f-WO4qhuTFuI4Y3Qx2Yt-102" value="" style="edgeStyle=entityRelationEdgeStyle;fontSize=12;html=1;endArrow=ERmandOne;startArrow=ERmandOne;rounded=0;exitX=1;exitY=0.5;exitDx=0;exitDy=0;" edge="1" parent="WIyWlLk6GJQsqaUBKTNV-1" source="f-WO4qhuTFuI4Y3Qx2Yt-100">
          <mxGeometry width="100" height="100" relative="1" as="geometry">
            <mxPoint x="40" y="560" as="sourcePoint" />
            <mxPoint x="140" y="460" as="targetPoint" />
          </mxGeometry>
        </mxCell>
        <mxCell id="f-WO4qhuTFuI4Y3Qx2Yt-103" value="" style="edgeStyle=entityRelationEdgeStyle;fontSize=12;html=1;endArrow=ERmandOne;rounded=0;entryX=1;entryY=0.5;entryDx=0;entryDy=0;exitX=0;exitY=0.25;exitDx=0;exitDy=0;" edge="1" parent="WIyWlLk6GJQsqaUBKTNV-1" source="f-WO4qhuTFuI4Y3Qx2Yt-1" target="f-WO4qhuTFuI4Y3Qx2Yt-99">
          <mxGeometry width="100" height="100" relative="1" as="geometry">
            <mxPoint x="40" y="560" as="sourcePoint" />
            <mxPoint x="140" y="460" as="targetPoint" />
          </mxGeometry>
        </mxCell>
        <mxCell id="f-WO4qhuTFuI4Y3Qx2Yt-104" value="" style="edgeStyle=entityRelationEdgeStyle;fontSize=12;html=1;endArrow=ERmandOne;startArrow=ERmandOne;rounded=0;exitX=1;exitY=0.5;exitDx=0;exitDy=0;" edge="1" parent="WIyWlLk6GJQsqaUBKTNV-1" source="f-WO4qhuTFuI4Y3Qx2Yt-101">
          <mxGeometry width="100" height="100" relative="1" as="geometry">
            <mxPoint x="40" y="570" as="sourcePoint" />
            <mxPoint x="140" y="470" as="targetPoint" />
          </mxGeometry>
        </mxCell>
        <mxCell id="f-WO4qhuTFuI4Y3Qx2Yt-105" value="DescTurno" style="ellipse;whiteSpace=wrap;html=1;align=center;" vertex="1" parent="WIyWlLk6GJQsqaUBKTNV-1">
          <mxGeometry y="585" width="100" height="40" as="geometry" />
        </mxCell>
        <mxCell id="f-WO4qhuTFuI4Y3Qx2Yt-106" value="" style="edgeStyle=entityRelationEdgeStyle;fontSize=12;html=1;endArrow=ERmandOne;rounded=0;exitX=1;exitY=0.5;exitDx=0;exitDy=0;" edge="1" parent="WIyWlLk6GJQsqaUBKTNV-1" source="f-WO4qhuTFuI4Y3Qx2Yt-105">
          <mxGeometry width="100" height="100" relative="1" as="geometry">
            <mxPoint x="160" y="590" as="sourcePoint" />
            <mxPoint x="230" y="480" as="targetPoint" />
          </mxGeometry>
        </mxCell>
        <mxCell id="f-WO4qhuTFuI4Y3Qx2Yt-107" value="Ramal" style="shape=ext;margin=3;double=1;whiteSpace=wrap;html=1;align=center;" vertex="1" parent="WIyWlLk6GJQsqaUBKTNV-1">
          <mxGeometry x="570" y="440" width="100" height="40" as="geometry" />
        </mxCell>
        <mxCell id="f-WO4qhuTFuI4Y3Qx2Yt-109" value="Descripcion" style="ellipse;whiteSpace=wrap;html=1;align=center;" vertex="1" parent="WIyWlLk6GJQsqaUBKTNV-1">
          <mxGeometry x="780" y="500" width="100" height="40" as="geometry" />
        </mxCell>
        <mxCell id="f-WO4qhuTFuI4Y3Qx2Yt-111" value="&lt;span style=&quot;border-bottom: 1px dotted&quot;&gt;IDRamal&lt;/span&gt;" style="ellipse;whiteSpace=wrap;html=1;align=center;" vertex="1" parent="WIyWlLk6GJQsqaUBKTNV-1">
          <mxGeometry x="730" y="585" width="100" height="40" as="geometry" />
        </mxCell>
        <mxCell id="f-WO4qhuTFuI4Y3Qx2Yt-112" value="" style="edgeStyle=entityRelationEdgeStyle;fontSize=12;html=1;endArrow=ERmandOne;rounded=0;exitX=0.5;exitY=1;exitDx=0;exitDy=0;entryX=0;entryY=0.5;entryDx=0;entryDy=0;" edge="1" parent="WIyWlLk6GJQsqaUBKTNV-1" source="f-WO4qhuTFuI4Y3Qx2Yt-107" target="f-WO4qhuTFuI4Y3Qx2Yt-111">
          <mxGeometry width="100" height="100" relative="1" as="geometry">
            <mxPoint x="560" y="710" as="sourcePoint" />
            <mxPoint x="660" y="610" as="targetPoint" />
          </mxGeometry>
        </mxCell>
        <mxCell id="f-WO4qhuTFuI4Y3Qx2Yt-113" value="" style="edgeStyle=entityRelationEdgeStyle;fontSize=12;html=1;endArrow=ERmandOne;startArrow=ERmandOne;rounded=0;entryX=0;entryY=0.5;entryDx=0;entryDy=0;" edge="1" parent="WIyWlLk6GJQsqaUBKTNV-1" source="f-WO4qhuTFuI4Y3Qx2Yt-107" target="f-WO4qhuTFuI4Y3Qx2Yt-109">
          <mxGeometry width="100" height="100" relative="1" as="geometry">
            <mxPoint x="680" y="620" as="sourcePoint" />
            <mxPoint x="770" y="530" as="targetPoint" />
          </mxGeometry>
        </mxCell>
      </root>
    </mxGraphModel>
  </diagram>
</mxfile>
